<svg width="40" height="40" viewBox="0 0 40 40" fill="none" xmlns="http://www.w3.org/2000/svg">
<path d="M15.2833 25.9663C14.9666 25.9663 14.65 25.8496 14.4 25.5996C13.9166 25.1163 13.9166 24.3163 14.4 23.8329L23.8333 14.3996C24.3166 13.9163 25.1166 13.9163 25.6 14.3996C26.0833 14.8829 26.0833 15.6829 25.6 16.1663L16.1666 25.5996C15.9333 25.8496 15.6 25.9663 15.2833 25.9663Z" fill="white"/>
<path d="M24.7166 25.9663C24.4 25.9663 24.0833 25.8496 23.8333 25.5996L14.4 16.1663C13.9166 15.6829 13.9166 14.8829 14.4 14.3996C14.8833 13.9163 15.6833 13.9163 16.1666 14.3996L25.6 23.8329C26.0833 24.3163 26.0833 25.1163 25.6 25.5996C25.35 25.8496 25.0333 25.9663 24.7166 25.9663Z" fill="white"/>
</svg>