<svg width="22" height="20" viewBox="0 0 22 20" fill="none" xmlns="http://www.w3.org/2000/svg">
<path d="M6.31584 14.575L8.42417 16.4917M18.1408 12.4417C17.2457 13.2534 16.1238 13.8275 14.896 14.1022C13.6683 14.3768 12.3814 14.3415 11.1742 14L6.85667 17.9167C6.545 18.2083 5.93084 18.3833 5.49084 18.325L3.4925 18.075C2.8325 17.9917 2.21834 17.425 2.1175 16.825L1.8425 15.0083C1.77834 14.6083 1.98917 14.05 2.29167 13.7667L6.6 9.85C5.86667 7.68333 6.435 5.225 8.32334 3.51667C11.0275 1.05833 15.4183 1.05833 18.1317 3.51667C20.845 5.975 20.845 9.98333 18.1408 12.4417Z" stroke="#A31ED2" stroke-width="1.5" stroke-miterlimit="10" stroke-linecap="round" stroke-linejoin="round"/>
<path d="M13.2917 9.16667C13.6563 9.16667 14.0061 9.03497 14.2639 8.80055C14.5218 8.56613 14.6667 8.24819 14.6667 7.91667C14.6667 7.58515 14.5218 7.2672 14.2639 7.03278C14.0061 6.79836 13.6563 6.66667 13.2917 6.66667C12.927 6.66667 12.5772 6.79836 12.3194 7.03278C12.0615 7.2672 11.9167 7.58515 11.9167 7.91667C11.9167 8.24819 12.0615 8.56613 12.3194 8.80055C12.5772 9.03497 12.927 9.16667 13.2917 9.16667Z" stroke="#9A38AA" stroke-width="1.5" stroke-linecap="round" stroke-linejoin="round"/>
<rect x="0.5" y="0.5" width="21" height="19" stroke="black"/>
</svg>
