<svg width="12" height="12" viewBox="0 0 12 12" fill="none" xmlns="http://www.w3.org/2000/svg">
<g clip-path="url(#clip0_7_279)">
<path d="M5.99995 3.22V4.885M6.00995 1C4.16995 1 2.67995 2.49 2.67995 4.33V5.38C2.67995 5.72 2.53995 6.23 2.36495 6.52L1.72995 7.58C1.33995 8.235 1.60995 8.965 2.32995 9.205C4.72059 9.99999 7.30431 9.99999 9.69495 9.205C9.85269 9.15238 9.9966 9.06499 10.116 8.94928C10.2355 8.83357 10.3274 8.69251 10.385 8.53652C10.4426 8.38052 10.4644 8.21357 10.4488 8.04801C10.4332 7.88245 10.3806 7.72251 10.2949 7.58L9.65995 6.52C9.48495 6.23 9.34495 5.715 9.34495 5.38V4.33C9.33995 2.5 7.83995 1 6.00995 1Z" stroke="#F60F0F" stroke-width="1.5" stroke-miterlimit="10" stroke-linecap="round"/>
<path d="M7.66496 9.41003C7.66496 10.325 6.91496 11.075 5.99996 11.075C5.54496 11.075 5.12496 10.885 4.82496 10.585C4.52496 10.285 4.33496 9.86503 4.33496 9.41003" stroke="#F60F0F" stroke-width="1.5" stroke-miterlimit="10"/>
</g>
<defs>
<clipPath id="clip0_7_279">
<rect width="12" height="12" fill="white"/>
</clipPath>
</defs>
</svg>
