<svg width="20" height="20" viewBox="0 0 20 20" fill="none" xmlns="http://www.w3.org/2000/svg">
<path d="M10.0001 6.45829V10.8333M17.5667 7.14996V12.85C17.5667 13.7833 17.0667 14.65 16.2584 15.125L11.3084 17.9833C10.5001 18.45 9.50005 18.45 8.68339 17.9833L3.73339 15.125C3.33486 14.8939 3.00416 14.562 2.77451 14.1627C2.54486 13.7634 2.42433 13.3106 2.42505 12.85V7.14996C2.42505 6.21663 2.92505 5.34996 3.73339 4.87496L8.68339 2.01663C9.49172 1.54996 10.4917 1.54996 11.3084 2.01663L16.2584 4.87496C17.0667 5.34996 17.5667 6.20829 17.5667 7.14996Z" stroke="#F6EC0F" stroke-width="1.5" stroke-linecap="round" stroke-linejoin="round"/>
<path d="M10 13.5V13.5833" stroke="#FFE600" stroke-width="2" stroke-linecap="round" stroke-linejoin="round"/>
</svg>
